# xmcd CD database file
#
# Track frame offsets:
#	150
#	15275
#	32230
#	48900
#	73770
#	80352
#	103227
#	125035
#	138967
#	161095
#	177852
#
# Disc length: 2580 seconds
#
# Revision: 5
# Processed by: cddbd v1.5.2PL0 Copyright (c) Steve Scherf et al.
# Submitted via: CDex 1.51
#
DISCID=900a120b
DTITLE=筋肉少女帯 - エリーゼのために
DYEAR=1992
DGENRE=ハードロック
TTITLE0=人生は大車輪
TTITLE1=世界の果て ～江戸川乱歩に～
TTITLE2=ソウルコックリさん
TTITLE3=戦え！何を !? 人生を！
TTITLE4=じーさんはいい塩梅
TTITLE5=生きてあげようかな
TTITLE6=スラッシュ禅問答
TTITLE7=妄想の男
TTITLE8=悲しくて御免なさい
TTITLE9=新興宗教オレ教
TTITLE10=愛のリビドー（性的衝動）
EXTD=YEAR: 1992
EXTT0=
EXTT1=
EXTT2=
EXTT3=
EXTT4=
EXTT5=
EXTT6=
EXTT7=
EXTT8=
EXTT9=
EXTT10=
PLAYORDER=
